<svg width="25" height="25" viewBox="0 0 25 25" fill="none" xmlns="http://www.w3.org/2000/svg">
<g clip-path="url(#clip0_8_1069)">
<path d="M24.5801 11.176L13.3634 0.955425C12.8711 0.506745 12.1287 0.506793 11.6365 0.955377L0.419795 11.1761C0.025411 11.5354 -0.104862 12.0891 0.0878132 12.5867C0.280537 13.0842 0.749775 13.4056 1.28332 13.4056H3.07482V23.6459C3.07482 24.0519 3.40402 24.3811 3.81002 24.3811H9.95816C10.3642 24.3811 10.6934 24.0519 10.6934 23.6459V17.4283H14.3067V23.6459C14.3067 24.0519 14.6359 24.3811 15.0419 24.3811H21.1898C21.5958 24.3811 21.925 24.052 21.925 23.6459V13.4056H23.7168C24.2503 13.4056 24.7196 13.0841 24.9123 12.5867C25.1048 12.0891 24.9745 11.5354 24.5801 11.176Z" fill="#D2D2D2"/>
</g>
<defs>
<clipPath id="clip0_8_1069">
<rect width="25" height="25" fill="white"/>
</clipPath>
</defs>
</svg>
