<svg width="218" height="92" viewBox="0 0 218 92" fill="none" xmlns="http://www.w3.org/2000/svg">
<mask id="path-1-outside-1_22_55" maskUnits="userSpaceOnUse" x="7" y="19" width="207" height="54" fill="black">
<rect fill="white" x="7" y="19" width="207" height="54"/>
<path d="M29.496 72.008C26.28 72.008 23.808 71.456 22.08 70.352C20.352 69.248 19.08 68.024 18.264 66.68H16.968V71H8.04V20.6H17.112V39.392H18.408C18.936 38.528 19.632 37.712 20.496 36.944C21.408 36.176 22.584 35.552 24.024 35.072C25.512 34.544 27.336 34.28 29.496 34.28C32.376 34.28 35.04 35 37.488 36.44C39.936 37.832 41.904 39.896 43.392 42.632C44.88 45.368 45.624 48.68 45.624 52.568V53.72C45.624 57.608 44.88 60.92 43.392 63.656C41.904 66.392 39.936 68.48 37.488 69.92C35.04 71.312 32.376 72.008 29.496 72.008ZM26.76 64.088C29.544 64.088 31.872 63.2 33.744 61.424C35.616 59.6 36.552 56.96 36.552 53.504V52.784C36.552 49.328 35.616 46.712 33.744 44.936C31.92 43.112 29.592 42.2 26.76 42.2C23.976 42.2 21.648 43.112 19.776 44.936C17.904 46.712 16.968 49.328 16.968 52.784V53.504C16.968 56.96 17.904 59.6 19.776 61.424C21.648 63.2 23.976 64.088 26.76 64.088ZM53.9541 71V20.6H63.0261V71H53.9541ZM90.0711 72.008C86.5191 72.008 83.3271 71.288 80.4951 69.848C77.6631 68.408 75.4311 66.32 73.7991 63.584C72.1671 60.848 71.3511 57.56 71.3511 53.72V52.568C71.3511 48.728 72.1671 45.44 73.7991 42.704C75.4311 39.968 77.6631 37.88 80.4951 36.44C83.3271 35 86.5191 34.28 90.0711 34.28C93.6231 34.28 96.8151 35 99.6471 36.44C102.479 37.88 104.711 39.968 106.343 42.704C107.975 45.44 108.791 48.728 108.791 52.568V53.72C108.791 57.56 107.975 60.848 106.343 63.584C104.711 66.32 102.479 68.408 99.6471 69.848C96.8151 71.288 93.6231 72.008 90.0711 72.008ZM90.0711 63.944C92.8551 63.944 95.1591 63.056 96.9831 61.28C98.8071 59.456 99.7191 56.864 99.7191 53.504V52.784C99.7191 49.424 98.8071 46.856 96.9831 45.08C95.2071 43.256 92.9031 42.344 90.0711 42.344C87.2871 42.344 84.9831 43.256 83.1591 45.08C81.3351 46.856 80.4231 49.424 80.4231 52.784V53.504C80.4231 56.864 81.3351 59.456 83.1591 61.28C84.9831 63.056 87.2871 63.944 90.0711 63.944ZM134.157 72.008C130.605 72.008 127.413 71.288 124.581 69.848C121.749 68.408 119.517 66.32 117.885 63.584C116.253 60.848 115.437 57.56 115.437 53.72V52.568C115.437 48.728 116.253 45.44 117.885 42.704C119.517 39.968 121.749 37.88 124.581 36.44C127.413 35 130.605 34.28 134.157 34.28C137.709 34.28 140.901 35 143.733 36.44C146.565 37.88 148.797 39.968 150.429 42.704C152.061 45.44 152.877 48.728 152.877 52.568V53.72C152.877 57.56 152.061 60.848 150.429 63.584C148.797 66.32 146.565 68.408 143.733 69.848C140.901 71.288 137.709 72.008 134.157 72.008ZM134.157 63.944C136.941 63.944 139.245 63.056 141.069 61.28C142.893 59.456 143.805 56.864 143.805 53.504V52.784C143.805 49.424 142.893 46.856 141.069 45.08C139.293 43.256 136.989 42.344 134.157 42.344C131.373 42.344 129.069 43.256 127.245 45.08C125.421 46.856 124.509 49.424 124.509 52.784V53.504C124.509 56.864 125.421 59.456 127.245 61.28C129.069 63.056 131.373 63.944 134.157 63.944ZM161.251 71V35.288H170.179V39.176H171.475C172.099 37.976 173.131 36.944 174.571 36.08C176.011 35.168 177.907 34.712 180.259 34.712C182.803 34.712 184.843 35.216 186.379 36.224C187.915 37.184 189.091 38.456 189.907 40.04H191.203C192.019 38.504 193.171 37.232 194.659 36.224C196.147 35.216 198.259 34.712 200.995 34.712C203.203 34.712 205.195 35.192 206.971 36.152C208.795 37.064 210.235 38.48 211.291 40.4C212.395 42.272 212.947 44.648 212.947 47.528V71H203.875V48.176C203.875 46.208 203.371 44.744 202.363 43.784C201.355 42.776 199.939 42.272 198.115 42.272C196.051 42.272 194.443 42.944 193.291 44.288C192.187 45.584 191.635 47.456 191.635 49.904V71H182.563V48.176C182.563 46.208 182.059 44.744 181.051 43.784C180.043 42.776 178.627 42.272 176.803 42.272C174.739 42.272 173.131 42.944 171.979 44.288C170.875 45.584 170.323 47.456 170.323 49.904V71H161.251Z"/>
</mask>
<path d="M29.496 72.008C26.28 72.008 23.808 71.456 22.08 70.352C20.352 69.248 19.08 68.024 18.264 66.68H16.968V71H8.04V20.6H17.112V39.392H18.408C18.936 38.528 19.632 37.712 20.496 36.944C21.408 36.176 22.584 35.552 24.024 35.072C25.512 34.544 27.336 34.28 29.496 34.28C32.376 34.28 35.04 35 37.488 36.44C39.936 37.832 41.904 39.896 43.392 42.632C44.88 45.368 45.624 48.68 45.624 52.568V53.72C45.624 57.608 44.88 60.92 43.392 63.656C41.904 66.392 39.936 68.48 37.488 69.92C35.04 71.312 32.376 72.008 29.496 72.008ZM26.76 64.088C29.544 64.088 31.872 63.2 33.744 61.424C35.616 59.6 36.552 56.96 36.552 53.504V52.784C36.552 49.328 35.616 46.712 33.744 44.936C31.92 43.112 29.592 42.2 26.76 42.2C23.976 42.2 21.648 43.112 19.776 44.936C17.904 46.712 16.968 49.328 16.968 52.784V53.504C16.968 56.96 17.904 59.6 19.776 61.424C21.648 63.2 23.976 64.088 26.76 64.088ZM53.9541 71V20.6H63.0261V71H53.9541ZM90.0711 72.008C86.5191 72.008 83.3271 71.288 80.4951 69.848C77.6631 68.408 75.4311 66.32 73.7991 63.584C72.1671 60.848 71.3511 57.56 71.3511 53.72V52.568C71.3511 48.728 72.1671 45.44 73.7991 42.704C75.4311 39.968 77.6631 37.88 80.4951 36.44C83.3271 35 86.5191 34.28 90.0711 34.28C93.6231 34.28 96.8151 35 99.6471 36.44C102.479 37.88 104.711 39.968 106.343 42.704C107.975 45.44 108.791 48.728 108.791 52.568V53.72C108.791 57.56 107.975 60.848 106.343 63.584C104.711 66.32 102.479 68.408 99.6471 69.848C96.8151 71.288 93.6231 72.008 90.0711 72.008ZM90.0711 63.944C92.8551 63.944 95.1591 63.056 96.9831 61.28C98.8071 59.456 99.7191 56.864 99.7191 53.504V52.784C99.7191 49.424 98.8071 46.856 96.9831 45.08C95.2071 43.256 92.9031 42.344 90.0711 42.344C87.2871 42.344 84.9831 43.256 83.1591 45.08C81.3351 46.856 80.4231 49.424 80.4231 52.784V53.504C80.4231 56.864 81.3351 59.456 83.1591 61.28C84.9831 63.056 87.2871 63.944 90.0711 63.944ZM134.157 72.008C130.605 72.008 127.413 71.288 124.581 69.848C121.749 68.408 119.517 66.32 117.885 63.584C116.253 60.848 115.437 57.56 115.437 53.72V52.568C115.437 48.728 116.253 45.44 117.885 42.704C119.517 39.968 121.749 37.88 124.581 36.44C127.413 35 130.605 34.28 134.157 34.28C137.709 34.28 140.901 35 143.733 36.44C146.565 37.88 148.797 39.968 150.429 42.704C152.061 45.44 152.877 48.728 152.877 52.568V53.72C152.877 57.56 152.061 60.848 150.429 63.584C148.797 66.32 146.565 68.408 143.733 69.848C140.901 71.288 137.709 72.008 134.157 72.008ZM134.157 63.944C136.941 63.944 139.245 63.056 141.069 61.28C142.893 59.456 143.805 56.864 143.805 53.504V52.784C143.805 49.424 142.893 46.856 141.069 45.08C139.293 43.256 136.989 42.344 134.157 42.344C131.373 42.344 129.069 43.256 127.245 45.08C125.421 46.856 124.509 49.424 124.509 52.784V53.504C124.509 56.864 125.421 59.456 127.245 61.28C129.069 63.056 131.373 63.944 134.157 63.944ZM161.251 71V35.288H170.179V39.176H171.475C172.099 37.976 173.131 36.944 174.571 36.08C176.011 35.168 177.907 34.712 180.259 34.712C182.803 34.712 184.843 35.216 186.379 36.224C187.915 37.184 189.091 38.456 189.907 40.04H191.203C192.019 38.504 193.171 37.232 194.659 36.224C196.147 35.216 198.259 34.712 200.995 34.712C203.203 34.712 205.195 35.192 206.971 36.152C208.795 37.064 210.235 38.48 211.291 40.4C212.395 42.272 212.947 44.648 212.947 47.528V71H203.875V48.176C203.875 46.208 203.371 44.744 202.363 43.784C201.355 42.776 199.939 42.272 198.115 42.272C196.051 42.272 194.443 42.944 193.291 44.288C192.187 45.584 191.635 47.456 191.635 49.904V71H182.563V48.176C182.563 46.208 182.059 44.744 181.051 43.784C180.043 42.776 178.627 42.272 176.803 42.272C174.739 42.272 173.131 42.944 171.979 44.288C170.875 45.584 170.323 47.456 170.323 49.904V71H161.251Z" fill="white"/>
<path d="M22.08 70.352L21.6762 70.984L22.08 70.352ZM18.264 66.68L18.9051 66.2908L18.6861 65.93H18.264V66.68ZM16.968 66.68V65.93H16.218V66.68H16.968ZM16.968 71V71.75H17.718V71H16.968ZM8.04 71H7.29V71.75H8.04V71ZM8.04 20.6V19.85H7.29V20.6H8.04ZM17.112 20.6H17.862V19.85H17.112V20.6ZM17.112 39.392H16.362V40.142H17.112V39.392ZM18.408 39.392V40.142H18.8286L19.048 39.7831L18.408 39.392ZM20.496 36.944L20.0129 36.3703L20.0052 36.3768L19.9977 36.3834L20.496 36.944ZM24.024 35.072L24.2612 35.7835L24.268 35.7812L24.2748 35.7788L24.024 35.072ZM37.488 36.44L37.1077 37.0865L37.1173 37.092L37.488 36.44ZM43.392 42.632L44.0509 42.2737L43.392 42.632ZM43.392 63.656L44.0509 64.0143L43.392 63.656ZM37.488 69.92L37.8588 70.572L37.8683 70.5665L37.488 69.92ZM33.744 61.424L34.2602 61.9681L34.2674 61.9612L33.744 61.424ZM33.744 44.936L33.2137 45.4663L33.2206 45.4733L33.2278 45.4801L33.744 44.936ZM19.776 44.936L20.2922 45.4801L20.2994 45.4732L19.776 44.936ZM19.776 61.424L19.2526 61.9612L19.2598 61.9681L19.776 61.424ZM29.496 71.258C26.3484 71.258 24.0408 70.7147 22.4838 69.72L21.6762 70.984C23.5752 72.1973 26.2116 72.758 29.496 72.758V71.258ZM22.4838 69.72C20.8241 68.6596 19.6463 67.5116 18.9051 66.2908L17.6229 67.0692C18.5137 68.5364 19.8799 69.8364 21.6762 70.984L22.4838 69.72ZM18.264 65.93H16.968V67.43H18.264V65.93ZM16.218 66.68V71H17.718V66.68H16.218ZM16.968 70.25H8.04V71.75H16.968V70.25ZM8.79 71V20.6H7.29V71H8.79ZM8.04 21.35H17.112V19.85H8.04V21.35ZM16.362 20.6V39.392H17.862V20.6H16.362ZM17.112 40.142H18.408V38.642H17.112V40.142ZM19.048 39.7831C19.5323 38.9905 20.1779 38.2302 20.9943 37.5046L19.9977 36.3834C19.0861 37.1938 18.3397 38.0655 17.768 39.0009L19.048 39.7831ZM20.9791 37.5177C21.8018 36.8249 22.8876 36.2414 24.2612 35.7835L23.7868 34.3605C22.2804 34.8626 21.0143 35.5271 20.0129 36.3703L20.9791 37.5177ZM24.2748 35.7788C25.6587 35.2878 27.3922 35.03 29.496 35.03V33.53C27.2798 33.53 25.3653 33.8002 23.7732 34.3652L24.2748 35.7788ZM29.496 35.03C32.2443 35.03 34.7767 35.7152 37.1077 37.0864L37.8683 35.7935C35.3033 34.2848 32.5077 33.53 29.496 33.53V35.03ZM37.1173 37.092C39.4311 38.4077 41.3046 40.3637 42.7331 42.9903L44.0509 42.2737C42.5034 39.4283 40.4409 37.2563 37.8587 35.788L37.1173 37.092ZM42.7331 42.9903C44.1483 45.5923 44.874 48.7746 44.874 52.568H46.374C46.374 48.5854 45.6118 45.1437 44.0509 42.2737L42.7331 42.9903ZM44.874 52.568V53.72H46.374V52.568H44.874ZM44.874 53.72C44.874 57.5134 44.1483 60.6957 42.7331 63.2977L44.0509 64.0143C45.6118 61.1443 46.374 57.7026 46.374 53.72H44.874ZM42.7331 63.2977C41.3037 65.926 39.4273 67.9091 37.1077 69.2736L37.8683 70.5665C40.4447 69.0509 42.5043 66.8579 44.0509 64.0143L42.7331 63.2977ZM37.1173 69.268C34.7849 70.5943 32.2491 71.258 29.496 71.258V72.758C32.5029 72.758 35.2951 72.0297 37.8587 70.572L37.1173 69.268ZM26.76 64.838C29.7195 64.838 32.2372 63.8873 34.2602 61.9681L33.2278 60.8799C31.5068 62.5127 29.3685 63.338 26.76 63.338V64.838ZM34.2674 61.9612C36.3266 59.9548 37.302 57.0945 37.302 53.504H35.802C35.802 56.8255 34.9054 59.2452 33.2206 60.8868L34.2674 61.9612ZM37.302 53.504V52.784H35.802V53.504H37.302ZM37.302 52.784C37.302 49.1949 36.327 46.3527 34.2602 44.3919L33.2278 45.4801C34.905 47.0713 35.802 49.4611 35.802 52.784H37.302ZM34.2743 44.4057C32.2952 42.4266 29.7695 41.45 26.76 41.45V42.95C29.4145 42.95 31.5448 43.7974 33.2137 45.4663L34.2743 44.4057ZM26.76 41.45C23.7945 41.45 21.2744 42.4289 19.2526 44.3988L20.2994 45.4732C22.0216 43.7951 24.1575 42.95 26.76 42.95V41.45ZM19.2598 44.3919C17.193 46.3527 16.218 49.1949 16.218 52.784H17.718C17.718 49.4611 18.615 47.0713 20.2922 45.4801L19.2598 44.3919ZM16.218 52.784V53.504H17.718V52.784H16.218ZM16.218 53.504C16.218 57.0945 17.1934 59.9548 19.2526 61.9612L20.2994 60.8868C18.6146 59.2452 17.718 56.8255 17.718 53.504H16.218ZM19.2598 61.9681C21.2828 63.8873 23.8005 64.838 26.76 64.838V63.338C24.1515 63.338 22.0132 62.5127 20.2922 60.8799L19.2598 61.9681ZM53.9541 71H53.2041V71.75H53.9541V71ZM53.9541 20.6V19.85H53.2041V20.6H53.9541ZM63.0261 20.6H63.7761V19.85H63.0261V20.6ZM63.0261 71V71.75H63.7761V71H63.0261ZM54.7041 71V20.6H53.2041V71H54.7041ZM53.9541 21.35H63.0261V19.85H53.9541V21.35ZM62.2761 20.6V71H63.7761V20.6H62.2761ZM63.0261 70.25H53.9541V71.75H63.0261V70.25ZM80.4951 69.848L80.1551 70.5165L80.4951 69.848ZM73.7991 42.704L74.4432 43.0882L73.7991 42.704ZM80.4951 36.44L80.835 37.1085L80.4951 36.44ZM99.6471 36.44L99.3071 37.1085L99.6471 36.44ZM106.343 42.704L105.699 43.0882L106.343 42.704ZM106.343 63.584L105.699 63.1998L106.343 63.584ZM99.6471 69.848L99.3071 69.1795L99.6471 69.848ZM96.9831 61.28L97.5063 61.8174L97.5134 61.8103L96.9831 61.28ZM96.9831 45.08L96.4457 45.6032L96.4527 45.6104L96.4599 45.6174L96.9831 45.08ZM83.1591 45.08L83.6823 45.6174L83.6894 45.6103L83.1591 45.08ZM83.1591 61.28L82.6287 61.8104L82.6358 61.8174L83.1591 61.28ZM90.0711 71.258C86.6231 71.258 83.5498 70.5599 80.835 69.1795L80.1551 70.5165C83.1043 72.0161 86.415 72.758 90.0711 72.758V71.258ZM80.835 69.1795C78.1296 67.8038 76.0029 65.8146 74.4432 63.1998L73.1549 63.9682C74.8593 66.8254 77.1966 69.0122 80.1551 70.5165L80.835 69.1795ZM74.4432 63.1998C72.8935 60.6018 72.1011 57.4526 72.1011 53.72H70.6011C70.6011 57.6674 71.4407 61.0942 73.1549 63.9682L74.4432 63.1998ZM72.1011 53.72V52.568H70.6011V53.72H72.1011ZM72.1011 52.568C72.1011 48.8354 72.8935 45.6862 74.4432 43.0882L73.1549 42.3198C71.4407 45.1938 70.6011 48.6206 70.6011 52.568H72.1011ZM74.4432 43.0882C76.0029 40.4734 78.1296 38.4842 80.835 37.1085L80.1551 35.7715C77.1966 37.2758 74.8593 39.4626 73.1549 42.3198L74.4432 43.0882ZM80.835 37.1085C83.5498 35.7281 86.6231 35.03 90.0711 35.03V33.53C86.415 33.53 83.1043 34.2719 80.1551 35.7715L80.835 37.1085ZM90.0711 35.03C93.519 35.03 96.5923 35.7281 99.3071 37.1085L99.987 35.7715C97.0378 34.2719 93.7271 33.53 90.0711 33.53V35.03ZM99.3071 37.1085C102.013 38.4842 104.139 40.4734 105.699 43.0882L106.987 42.3198C105.283 39.4626 102.946 37.2758 99.987 35.7715L99.3071 37.1085ZM105.699 43.0882C107.249 45.6862 108.041 48.8354 108.041 52.568H109.541C109.541 48.6206 108.701 45.1938 106.987 42.3198L105.699 43.0882ZM108.041 52.568V53.72H109.541V52.568H108.041ZM108.041 53.72C108.041 57.4526 107.249 60.6018 105.699 63.1998L106.987 63.9682C108.701 61.0942 109.541 57.6674 109.541 53.72H108.041ZM105.699 63.1998C104.139 65.8146 102.013 67.8038 99.3071 69.1795L99.987 70.5165C102.946 69.0122 105.283 66.8254 106.987 63.9682L105.699 63.1998ZM99.3071 69.1795C96.5923 70.5599 93.519 71.258 90.0711 71.258V72.758C93.7271 72.758 97.0378 72.0161 99.987 70.5165L99.3071 69.1795ZM90.0711 64.694C93.0305 64.694 95.5285 63.7431 97.5063 61.8174L96.4599 60.7426C94.7896 62.3689 92.6797 63.194 90.0711 63.194V64.694ZM97.5134 61.8103C99.5169 59.8068 100.469 57.0002 100.469 53.504H98.9691C98.9691 56.7278 98.0972 59.1052 96.4527 60.7497L97.5134 61.8103ZM100.469 53.504V52.784H98.9691V53.504H100.469ZM100.469 52.784C100.469 49.289 99.5173 46.5008 97.5063 44.5426L96.4599 45.6174C98.0968 47.2112 98.9691 49.559 98.9691 52.784H100.469ZM97.5204 44.5568C95.5867 42.5708 93.0804 41.594 90.0711 41.594V43.094C92.7257 43.094 94.8274 43.9412 96.4457 45.6032L97.5204 44.5568ZM90.0711 41.594C87.1056 41.594 84.6052 42.5732 82.6287 44.5497L83.6894 45.6103C85.3609 43.9388 87.4686 43.094 90.0711 43.094V41.594ZM82.6358 44.5426C80.6248 46.5008 79.6731 49.289 79.6731 52.784H81.1731C81.1731 49.559 82.0453 47.2112 83.6823 45.6174L82.6358 44.5426ZM79.6731 52.784V53.504H81.1731V52.784H79.6731ZM79.6731 53.504C79.6731 57.0002 80.6252 59.8068 82.6287 61.8103L83.6894 60.7497C82.0449 59.1052 81.1731 56.7278 81.1731 53.504H79.6731ZM82.6358 61.8174C84.6136 63.7431 87.1117 64.694 90.0711 64.694V63.194C87.4625 63.194 85.3525 62.3689 83.6823 60.7426L82.6358 61.8174ZM124.581 69.848L124.241 70.5165L124.581 69.848ZM117.885 42.704L118.529 43.0882L117.885 42.704ZM124.581 36.44L124.921 37.1085L124.581 36.44ZM143.733 36.44L143.393 37.1085L143.733 36.44ZM150.429 42.704L149.785 43.0882L150.429 42.704ZM150.429 63.584L149.785 63.1998L150.429 63.584ZM143.733 69.848L143.393 69.1795L143.733 69.848ZM141.069 61.28L141.592 61.8174L141.599 61.8103L141.069 61.28ZM141.069 45.08L140.532 45.6032L140.539 45.6104L140.546 45.6174L141.069 45.08ZM127.245 45.08L127.768 45.6174L127.775 45.6103L127.245 45.08ZM127.245 61.28L126.715 61.8104L126.722 61.8174L127.245 61.28ZM134.157 71.258C130.709 71.258 127.636 70.5599 124.921 69.1795L124.241 70.5165C127.19 72.0161 130.501 72.758 134.157 72.758V71.258ZM124.921 69.1795C122.215 67.8038 120.089 65.8146 118.529 63.1998L117.241 63.9682C118.945 66.8254 121.283 69.0122 124.241 70.5165L124.921 69.1795ZM118.529 63.1998C116.979 60.6018 116.187 57.4526 116.187 53.72H114.687C114.687 57.6674 115.527 61.0942 117.241 63.9682L118.529 63.1998ZM116.187 53.72V52.568H114.687V53.72H116.187ZM116.187 52.568C116.187 48.8354 116.979 45.6862 118.529 43.0882L117.241 42.3198C115.527 45.1938 114.687 48.6206 114.687 52.568H116.187ZM118.529 43.0882C120.089 40.4734 122.215 38.4842 124.921 37.1085L124.241 35.7715C121.283 37.2758 118.945 39.4626 117.241 42.3198L118.529 43.0882ZM124.921 37.1085C127.636 35.7281 130.709 35.03 134.157 35.03V33.53C130.501 33.53 127.19 34.2719 124.241 35.7715L124.921 37.1085ZM134.157 35.03C137.605 35.03 140.678 35.7281 143.393 37.1085L144.073 35.7715C141.124 34.2719 137.813 33.53 134.157 33.53V35.03ZM143.393 37.1085C146.099 38.4842 148.225 40.4734 149.785 43.0882L151.073 42.3198C149.369 39.4626 147.031 37.2758 144.073 35.7715L143.393 37.1085ZM149.785 43.0882C151.335 45.6862 152.127 48.8354 152.127 52.568H153.627C153.627 48.6206 152.787 45.1938 151.073 42.3198L149.785 43.0882ZM152.127 52.568V53.72H153.627V52.568H152.127ZM152.127 53.72C152.127 57.4526 151.335 60.6018 149.785 63.1998L151.073 63.9682C152.787 61.0942 153.627 57.6674 153.627 53.72H152.127ZM149.785 63.1998C148.225 65.8146 146.099 67.8038 143.393 69.1795L144.073 70.5165C147.031 69.0122 149.369 66.8254 151.073 63.9682L149.785 63.1998ZM143.393 69.1795C140.678 70.5599 137.605 71.258 134.157 71.258V72.758C137.813 72.758 141.124 72.0161 144.073 70.5165L143.393 69.1795ZM134.157 64.694C137.116 64.694 139.614 63.7431 141.592 61.8174L140.546 60.7426C138.876 62.3689 136.766 63.194 134.157 63.194V64.694ZM141.599 61.8103C143.603 59.8068 144.555 57.0002 144.555 53.504H143.055C143.055 56.7278 142.183 59.1052 140.539 60.7497L141.599 61.8103ZM144.555 53.504V52.784H143.055V53.504H144.555ZM144.555 52.784C144.555 49.289 143.603 46.5008 141.592 44.5426L140.546 45.6174C142.183 47.2112 143.055 49.559 143.055 52.784H144.555ZM141.606 44.5568C139.673 42.5708 137.166 41.594 134.157 41.594V43.094C136.812 43.094 138.913 43.9412 140.532 45.6032L141.606 44.5568ZM134.157 41.594C131.191 41.594 128.691 42.5732 126.715 44.5497L127.775 45.6103C129.447 43.9388 131.555 43.094 134.157 43.094V41.594ZM126.722 44.5426C124.711 46.5008 123.759 49.289 123.759 52.784H125.259C125.259 49.559 126.131 47.2112 127.768 45.6174L126.722 44.5426ZM123.759 52.784V53.504H125.259V52.784H123.759ZM123.759 53.504C123.759 57.0002 124.711 59.8068 126.715 61.8103L127.775 60.7497C126.131 59.1052 125.259 56.7278 125.259 53.504H123.759ZM126.722 61.8174C128.7 63.7431 131.198 64.694 134.157 64.694V63.194C131.548 63.194 129.438 62.3689 127.768 60.7426L126.722 61.8174ZM161.251 71H160.501V71.75H161.251V71ZM161.251 35.288V34.538H160.501V35.288H161.251ZM170.179 35.288H170.929V34.538H170.179V35.288ZM170.179 39.176H169.429V39.926H170.179V39.176ZM171.475 39.176V39.926H171.93L172.14 39.522L171.475 39.176ZM174.571 36.08L174.957 36.7231L174.965 36.7185L174.972 36.7136L174.571 36.08ZM186.379 36.224L185.967 36.851L185.974 36.8556L185.981 36.86L186.379 36.224ZM189.907 40.04L189.24 40.3835L189.45 40.79H189.907V40.04ZM191.203 40.04V40.79H191.654L191.865 40.3919L191.203 40.04ZM194.659 36.224L195.08 36.8449V36.8449L194.659 36.224ZM206.971 36.152L206.614 36.8118L206.625 36.8175L206.636 36.8228L206.971 36.152ZM211.291 40.4L210.634 40.7614L210.639 40.7713L210.645 40.781L211.291 40.4ZM212.947 71V71.75H213.697V71H212.947ZM203.875 71H203.125V71.75H203.875V71ZM202.363 43.784L201.833 44.3143L201.839 44.3208L201.846 44.3271L202.363 43.784ZM193.291 44.288L192.721 43.7999L192.72 43.8016L193.291 44.288ZM191.635 71V71.75H192.385V71H191.635ZM182.563 71H181.813V71.75H182.563V71ZM181.051 43.784L180.521 44.3143L180.527 44.3208L180.534 44.3271L181.051 43.784ZM171.979 44.288L171.41 43.7999L171.408 43.8016L171.979 44.288ZM170.323 71V71.75H171.073V71H170.323ZM162.001 71V35.288H160.501V71H162.001ZM161.251 36.038H170.179V34.538H161.251V36.038ZM169.429 35.288V39.176H170.929V35.288H169.429ZM170.179 39.926H171.475V38.426H170.179V39.926ZM172.14 39.522C172.687 38.4715 173.607 37.533 174.957 36.7231L174.185 35.4369C172.655 36.355 171.511 37.4805 170.81 38.83L172.14 39.522ZM174.972 36.7136C176.255 35.9013 177.997 35.462 180.259 35.462V33.962C177.817 33.962 175.767 34.4347 174.17 35.4464L174.972 36.7136ZM180.259 35.462C182.711 35.462 184.592 35.9486 185.967 36.851L186.79 35.597C185.094 34.4834 182.895 33.962 180.259 33.962V35.462ZM185.981 36.86C187.405 37.7497 188.487 38.9215 189.24 40.3835L190.574 39.6965C189.695 37.9905 188.425 36.6183 186.776 35.588L185.981 36.86ZM189.907 40.79H191.203V39.29H189.907V40.79ZM191.865 40.3919C192.622 38.9676 193.689 37.7867 195.08 36.8449L194.238 35.6031C192.652 36.6773 191.416 38.0404 190.541 39.6881L191.865 40.3919ZM195.08 36.8449C196.394 35.9544 198.336 35.462 200.995 35.462V33.962C198.182 33.962 195.9 34.4776 194.238 35.6031L195.08 36.8449ZM200.995 35.462C203.09 35.462 204.958 35.9164 206.614 36.8118L207.328 35.4922C205.432 34.4676 203.316 33.962 200.995 33.962V35.462ZM206.636 36.8228C208.313 37.6616 209.645 38.9644 210.634 40.7614L211.948 40.0386C210.824 37.9956 209.277 36.4664 207.306 35.4812L206.636 36.8228ZM210.645 40.781C211.662 42.5059 212.197 44.7397 212.197 47.528H213.697C213.697 44.5563 213.128 42.0381 211.937 40.019L210.645 40.781ZM212.197 47.528V71H213.697V47.528H212.197ZM212.947 70.25H203.875V71.75H212.947V70.25ZM204.625 71V48.176H203.125V71H204.625ZM204.625 48.176C204.625 46.0893 204.09 44.3927 202.88 43.2409L201.846 44.3271C202.652 45.0953 203.125 46.3267 203.125 48.176H204.625ZM202.893 43.2537C201.708 42.0686 200.08 41.522 198.115 41.522V43.022C199.798 43.022 201.002 43.4834 201.833 44.3143L202.893 43.2537ZM198.115 41.522C195.872 41.522 194.04 42.2614 192.721 43.7999L193.86 44.7761C194.846 43.6266 196.23 43.022 198.115 43.022V41.522ZM192.72 43.8016C191.459 45.2821 190.885 47.3544 190.885 49.904H192.385C192.385 47.5576 192.915 45.8859 193.862 44.7743L192.72 43.8016ZM190.885 49.904V71H192.385V49.904H190.885ZM191.635 70.25H182.563V71.75H191.635V70.25ZM183.313 71V48.176H181.813V71H183.313ZM183.313 48.176C183.313 46.0893 182.778 44.3927 181.568 43.2409L180.534 44.3271C181.34 45.0953 181.813 46.3267 181.813 48.176H183.313ZM181.581 43.2537C180.396 42.0686 178.768 41.522 176.803 41.522V43.022C178.486 43.022 179.69 43.4834 180.521 44.3143L181.581 43.2537ZM176.803 41.522C174.56 41.522 172.728 42.2614 171.41 43.7999L172.548 44.7761C173.534 43.6266 174.918 43.022 176.803 43.022V41.522ZM171.408 43.8016C170.147 45.2821 169.573 47.3544 169.573 49.904H171.073C171.073 47.5576 171.603 45.8859 172.55 44.7743L171.408 43.8016ZM169.573 49.904V71H171.073V49.904H169.573ZM170.323 70.25H161.251V71.75H170.323V70.25Z" fill="#269E63" mask="url(#path-1-outside-1_22_55)"/>
<mask id="path-3-outside-2_22_55" maskUnits="userSpaceOnUse" x="7" y="19" width="40" height="54" fill="black">
<rect fill="white" x="7" y="19" width="40" height="54"/>
<path d="M29.496 72.008C26.28 72.008 23.808 71.456 22.08 70.352C20.352 69.248 19.08 68.024 18.264 66.68H16.968V71H8.04V20.6H17.112V39.392H18.408C18.936 38.528 19.632 37.712 20.496 36.944C21.408 36.176 22.584 35.552 24.024 35.072C25.512 34.544 27.336 34.28 29.496 34.28C32.376 34.28 35.04 35 37.488 36.44C39.936 37.832 41.904 39.896 43.392 42.632C44.88 45.368 45.624 48.68 45.624 52.568V53.72C45.624 57.608 44.88 60.92 43.392 63.656C41.904 66.392 39.936 68.48 37.488 69.92C35.04 71.312 32.376 72.008 29.496 72.008ZM26.76 64.088C29.544 64.088 31.872 63.2 33.744 61.424C35.616 59.6 36.552 56.96 36.552 53.504V52.784C36.552 49.328 35.616 46.712 33.744 44.936C31.92 43.112 29.592 42.2 26.76 42.2C23.976 42.2 21.648 43.112 19.776 44.936C17.904 46.712 16.968 49.328 16.968 52.784V53.504C16.968 56.96 17.904 59.6 19.776 61.424C21.648 63.2 23.976 64.088 26.76 64.088Z"/>
</mask>
<path d="M29.496 72.008C26.28 72.008 23.808 71.456 22.08 70.352C20.352 69.248 19.08 68.024 18.264 66.68H16.968V71H8.04V20.6H17.112V39.392H18.408C18.936 38.528 19.632 37.712 20.496 36.944C21.408 36.176 22.584 35.552 24.024 35.072C25.512 34.544 27.336 34.28 29.496 34.28C32.376 34.28 35.04 35 37.488 36.44C39.936 37.832 41.904 39.896 43.392 42.632C44.88 45.368 45.624 48.68 45.624 52.568V53.72C45.624 57.608 44.88 60.92 43.392 63.656C41.904 66.392 39.936 68.48 37.488 69.92C35.04 71.312 32.376 72.008 29.496 72.008ZM26.76 64.088C29.544 64.088 31.872 63.2 33.744 61.424C35.616 59.6 36.552 56.96 36.552 53.504V52.784C36.552 49.328 35.616 46.712 33.744 44.936C31.92 43.112 29.592 42.2 26.76 42.2C23.976 42.2 21.648 43.112 19.776 44.936C17.904 46.712 16.968 49.328 16.968 52.784V53.504C16.968 56.96 17.904 59.6 19.776 61.424C21.648 63.2 23.976 64.088 26.76 64.088Z" fill="white"/>
<path d="M22.08 70.352L21.6762 70.984L22.08 70.352ZM18.264 66.68L18.9051 66.2908L18.6861 65.93H18.264V66.68ZM16.968 66.68V65.93H16.218V66.68H16.968ZM16.968 71V71.75H17.718V71H16.968ZM8.04 71H7.29V71.75H8.04V71ZM8.04 20.6V19.85H7.29V20.6H8.04ZM17.112 20.6H17.862V19.85H17.112V20.6ZM17.112 39.392H16.362V40.142H17.112V39.392ZM18.408 39.392V40.142H18.8286L19.048 39.7831L18.408 39.392ZM20.496 36.944L20.0129 36.3703L20.0052 36.3768L19.9977 36.3834L20.496 36.944ZM24.024 35.072L24.2612 35.7835L24.268 35.7812L24.2748 35.7788L24.024 35.072ZM37.488 36.44L37.1077 37.0865L37.1173 37.092L37.488 36.44ZM43.392 42.632L44.0509 42.2737L43.392 42.632ZM43.392 63.656L44.0509 64.0143L43.392 63.656ZM37.488 69.92L37.8588 70.572L37.8683 70.5665L37.488 69.92ZM33.744 61.424L34.2602 61.9681L34.2674 61.9612L33.744 61.424ZM33.744 44.936L33.2137 45.4663L33.2206 45.4733L33.2278 45.4801L33.744 44.936ZM19.776 44.936L20.2922 45.4801L20.2994 45.4732L19.776 44.936ZM19.776 61.424L19.2526 61.9612L19.2598 61.9681L19.776 61.424ZM29.496 71.258C26.3484 71.258 24.0408 70.7147 22.4838 69.72L21.6762 70.984C23.5752 72.1973 26.2116 72.758 29.496 72.758V71.258ZM22.4838 69.72C20.8241 68.6596 19.6463 67.5116 18.9051 66.2908L17.6229 67.0692C18.5137 68.5364 19.8799 69.8364 21.6762 70.984L22.4838 69.72ZM18.264 65.93H16.968V67.43H18.264V65.93ZM16.218 66.68V71H17.718V66.68H16.218ZM16.968 70.25H8.04V71.75H16.968V70.25ZM8.79 71V20.6H7.29V71H8.79ZM8.04 21.35H17.112V19.85H8.04V21.35ZM16.362 20.6V39.392H17.862V20.6H16.362ZM17.112 40.142H18.408V38.642H17.112V40.142ZM19.048 39.7831C19.5323 38.9905 20.1779 38.2302 20.9943 37.5046L19.9977 36.3834C19.0861 37.1938 18.3397 38.0655 17.768 39.0009L19.048 39.7831ZM20.9791 37.5177C21.8018 36.8249 22.8876 36.2414 24.2612 35.7835L23.7868 34.3605C22.2804 34.8626 21.0143 35.5271 20.0129 36.3703L20.9791 37.5177ZM24.2748 35.7788C25.6587 35.2878 27.3922 35.03 29.496 35.03V33.53C27.2798 33.53 25.3653 33.8002 23.7732 34.3652L24.2748 35.7788ZM29.496 35.03C32.2443 35.03 34.7767 35.7152 37.1077 37.0864L37.8683 35.7935C35.3033 34.2848 32.5077 33.53 29.496 33.53V35.03ZM37.1173 37.092C39.4311 38.4077 41.3046 40.3637 42.7331 42.9903L44.0509 42.2737C42.5034 39.4283 40.4409 37.2563 37.8587 35.788L37.1173 37.092ZM42.7331 42.9903C44.1483 45.5923 44.874 48.7746 44.874 52.568H46.374C46.374 48.5854 45.6118 45.1437 44.0509 42.2737L42.7331 42.9903ZM44.874 52.568V53.72H46.374V52.568H44.874ZM44.874 53.72C44.874 57.5134 44.1483 60.6957 42.7331 63.2977L44.0509 64.0143C45.6118 61.1443 46.374 57.7026 46.374 53.72H44.874ZM42.7331 63.2977C41.3037 65.926 39.4273 67.9091 37.1077 69.2736L37.8683 70.5665C40.4447 69.0509 42.5043 66.8579 44.0509 64.0143L42.7331 63.2977ZM37.1173 69.268C34.7849 70.5943 32.2491 71.258 29.496 71.258V72.758C32.5029 72.758 35.2951 72.0297 37.8587 70.572L37.1173 69.268ZM26.76 64.838C29.7195 64.838 32.2372 63.8873 34.2602 61.9681L33.2278 60.8799C31.5068 62.5127 29.3685 63.338 26.76 63.338V64.838ZM34.2674 61.9612C36.3266 59.9548 37.302 57.0945 37.302 53.504H35.802C35.802 56.8255 34.9054 59.2452 33.2206 60.8868L34.2674 61.9612ZM37.302 53.504V52.784H35.802V53.504H37.302ZM37.302 52.784C37.302 49.1949 36.327 46.3527 34.2602 44.3919L33.2278 45.4801C34.905 47.0713 35.802 49.4611 35.802 52.784H37.302ZM34.2743 44.4057C32.2952 42.4266 29.7695 41.45 26.76 41.45V42.95C29.4145 42.95 31.5448 43.7974 33.2137 45.4663L34.2743 44.4057ZM26.76 41.45C23.7945 41.45 21.2744 42.4289 19.2526 44.3988L20.2994 45.4732C22.0216 43.7951 24.1575 42.95 26.76 42.95V41.45ZM19.2598 44.3919C17.193 46.3527 16.218 49.1949 16.218 52.784H17.718C17.718 49.4611 18.615 47.0713 20.2922 45.4801L19.2598 44.3919ZM16.218 52.784V53.504H17.718V52.784H16.218ZM16.218 53.504C16.218 57.0945 17.1934 59.9548 19.2526 61.9612L20.2994 60.8868C18.6146 59.2452 17.718 56.8255 17.718 53.504H16.218ZM19.2598 61.9681C21.2828 63.8873 23.8005 64.838 26.76 64.838V63.338C24.1515 63.338 22.0132 62.5127 20.2922 60.8799L19.2598 61.9681Z" fill="#269E63" mask="url(#path-3-outside-2_22_55)"/>
<path d="M6.30481 16.525C3.10027 15.4087 0.0257204 14.2552 0.86298 11.8518C1.70024 9.44836 4.97677 8.40499 8.18131 9.52134C11.3858 10.6377 13.3049 13.491 12.4676 15.8944C11.6304 18.2978 9.50935 17.6414 6.30481 16.525Z" fill="white"/>
<path d="M20.4321 14.2658C23.9976 12.0203 27.3955 9.76606 25.7113 7.09193C24.0271 4.4178 19.7714 4.07038 16.2059 6.31595C12.6404 8.56151 11.1153 12.5497 12.7995 15.2238C14.4836 17.898 16.8666 16.5114 20.4321 14.2658Z" fill="white"/>
<path d="M6 19.5L8.38235 28.5H16.5L19.5 19.5H6Z" fill="white"/>
<path d="M14.25 15C14.25 14.1716 13.5784 13.5 12.75 13.5C11.9216 13.5 11.25 14.1716 11.25 15V19.5H14.25V15Z" fill="white"/>
</svg>
