<svg width="20" height="25" viewBox="0 0 20 25" fill="none" xmlns="http://www.w3.org/2000/svg">
<path d="M9.65882 12.2266C12.4827 12.2266 14.7721 9.48964 14.7721 6.11336C14.7721 2.737 14.0205 0 9.65882 0C5.29716 0 4.54536 2.737 4.54536 6.11336C4.54536 9.48964 6.83479 12.2266 9.65882 12.2266Z" fill="#D2D2D2"/>
<path d="M0.00100584 21.5609C-0.000736324 21.5029 0.000134757 21.3551 0.00100584 21.5609V21.5609Z" fill="#D2D2D2"/>
<path d="M19.3168 21.7217C19.3177 21.3307 19.3196 21.6654 19.3168 21.7217V21.7217Z" fill="#D2D2D2"/>
<path d="M19.3057 21.314C19.211 15.4325 18.4306 13.7565 12.4588 12.6957C12.4588 12.6957 11.6182 13.75 9.6589 13.75C7.69958 13.75 6.85881 12.6957 6.85881 12.6957C0.952183 13.745 0.124334 15.396 0.0154826 21.123C0.00655678 21.5906 0.00242046 21.6152 0.000823975 21.5609C0.00118681 21.6626 0.00162205 21.8507 0.00162205 22.1788C0.00162205 22.1788 1.42336 25 9.6589 25C17.8943 25 19.3162 22.1788 19.3162 22.1788C19.3162 21.968 19.3163 21.8215 19.3165 21.7218C19.3149 21.7553 19.3118 21.6903 19.3057 21.314Z" fill="#D2D2D2"/>
</svg>
